<svg xmlns="http://www.w3.org/2000/svg" viewBox="0 0 450 360"><defs><style>.cls-1{font-size:18px;}.cls-1,.cls-11,.cls-21{font-family:Avenir-Medium, Avenir;font-weight:500;}.cls-2{font-size:14px;}.cls-12,.cls-15,.cls-16,.cls-2{font-family:Avenir-Book, Avenir;}.cls-3{letter-spacing:-0.09em;}.cls-11,.cls-12,.cls-21,.cls-4,.cls-6{font-size:12px;}.cls-4,.cls-5{font-family:Avenir-Roman, Avenir;}.cls-13,.cls-5{font-size:10px;}.cls-12,.cls-6{fill:#565656;}.cls-6{font-family:Avenir-BookOblique, Avenir;font-style:oblique;}.cls-7{letter-spacing:-0.02em;}.cls-8{letter-spacing:0em;}.cls-10,.cls-9{fill:none;}.cls-9{stroke:#d9d9d9;stroke-linejoin:round;stroke-dasharray:1 1;}.cls-10{stroke:#000;stroke-miterlimit:10;stroke-width:0.75px;}.cls-13{font-family:Avenir-Heavy, Avenir;font-weight:800;}.cls-14{letter-spacing:-0.02em;}.cls-15,.cls-16{font-weight:400;}.cls-16{letter-spacing:-0.02em;}.cls-17{letter-spacing:-0.09em;}.cls-18{fill:#174a7c;}.cls-19{fill:#f0573e;}.cls-20{fill:#fcb64b;}.cls-21{fill:#fff;}</style></defs><title>_charts2</title><g id="axis"><text class="cls-1" transform="translate(3.02 19.34)">Age Distribution</text><text class="cls-2" transform="translate(3.02 38.34)">By race or ethnicit<tspan class="cls-3" x="112.75" y="0">y</tspan><tspan x="118.21" y="0">, 2018</tspan></text><text class="cls-4" transform="translate(25.02 61.34)">Age 65 and over</text><text class="cls-4" transform="translate(160.02 61.34)">Age 18 to 64</text><text class="cls-4" transform="translate(270.02 61.34)">Age 17 and under</text><text class="cls-5" transform="translate(4.01 106.34)">100%</text><text class="cls-5" transform="translate(9.57 123.34)">90%</text><text class="cls-5" transform="translate(9.57 140.34)">80%</text><text class="cls-5" transform="translate(9.57 157.34)">70%</text><text class="cls-5" transform="translate(9.57 174.34)">60%</text><text class="cls-5" transform="translate(9.57 191.34)">50%</text><text class="cls-5" transform="translate(9.57 208.34)">40%</text><text class="cls-5" transform="translate(9.57 225.34)">30%</text><text class="cls-5" transform="translate(9.57 242.34)">20%</text><text class="cls-5" transform="translate(9.57 259.34)">10%</text><text class="cls-5" transform="translate(15.13 276.34)">0%</text><text class="cls-6" transform="translate(3.02 89.34)">Pe<tspan class="cls-7" x="13.56" y="0">r</tspan><tspan class="cls-8" x="17.33" y="0">centage of total</tspan></text><text class="cls-6" transform="translate(3.02 304.34)">Median age</text><line class="cls-9" x1="36" y1="104" x2="341" y2="104"/><line class="cls-9" x1="36" y1="121.06" x2="341" y2="121.06"/><line class="cls-9" x1="36" y1="138.11" x2="341" y2="138.11"/><line class="cls-9" x1="36" y1="155.17" x2="341" y2="155.17"/><line class="cls-9" x1="36" y1="172.22" x2="341" y2="172.22"/><line class="cls-9" x1="36" y1="189.28" x2="341" y2="189.28"/><line class="cls-9" x1="36" y1="206.33" x2="341" y2="206.33"/><line class="cls-9" x1="36" y1="223.39" x2="341" y2="223.39"/><line class="cls-9" x1="36" y1="240.44" x2="341" y2="240.44"/><line class="cls-9" x1="36" y1="257.5" x2="341" y2="257.5"/><line class="cls-10" x1="36" y1="273.5" x2="341" y2="273.5"/></g><g id="value"><text class="cls-11" transform="translate(212.24 287.34)">Asian</text><text class="cls-12" transform="translate(220.35 304.34)">37</text><text class="cls-12" transform="translate(150.35 304.34)">34</text><text class="cls-12" transform="translate(74.35 304.34)">30</text><text class="cls-12" transform="translate(288.35 304.34)">44</text><text class="cls-11" transform="translate(142.68 287.34)">Black</text><text class="cls-11" transform="translate(58.02 287.34)">Hispanic</text><text class="cls-13" transform="translate(3.02 327.34)">Sou<tspan class="cls-14" x="17.58" y="0">r</tspan><tspan x="21.29" y="0">ce:</tspan><tspan class="cls-15" x="34.81" y="0" xml:space="preserve"> US Census Bu</tspan><tspan class="cls-16" x="99.67" y="0">r</tspan><tspan class="cls-15" x="102.81" y="0">eau, 2018 Population Estimates, June 2019; Annual Estimates of the </tspan><tspan class="cls-15"><tspan x="0" y="12">Resident Population by Sex, Single </tspan><tspan class="cls-17" x="157.98" y="12">Y</tspan><tspan x="162.8" y="12">ear of Age, Race, and Hispanic Origin for the United States: </tspan><tspan x="0" y="24">July 1, 2018.</tspan></tspan></text><text class="cls-11" transform="translate(280.92 287.34)">White</text><rect class="cls-18" x="4" y="53" width="15" height="10"/><rect class="cls-19" x="135" y="53" width="15" height="10"/><rect class="cls-20" x="249" y="53" width="15" height="10"/><rect class="cls-20" x="277.2" y="241.23" width="36.2" height="31.62"/><rect class="cls-19" x="277.2" y="138.31" width="36.2" height="102.92"/><rect class="cls-18" x="277.2" y="104" width="36.2" height="34.31"/><rect class="cls-20" x="62.93" y="219.7" width="35.52" height="53.14"/><rect class="cls-19" x="62.93" y="116.78" width="35.52" height="102.92"/><rect class="cls-18" x="62.93" y="104" width="35.52" height="12.78"/><rect class="cls-20" x="134.93" y="231.14" width="35.52" height="41.71"/><rect class="cls-19" x="134.93" y="124.18" width="35.52" height="106.96"/><rect class="cls-18" x="134.93" y="104" width="35.52" height="20.18"/><rect class="cls-20" x="208.47" y="239.21" width="36.2" height="33.63"/><rect class="cls-19" x="208.47" y="125.53" width="36.2" height="113.69"/><rect class="cls-18" x="208.47" y="104" width="36.2" height="21.53"/><text class="cls-21" transform="translate(283.24 126.34)">20%</text><text class="cls-21" transform="translate(283.24 190.34)">61%</text><text class="cls-11" transform="translate(283.24 264.34)">19%</text><text class="cls-11" transform="translate(214.24 262.34)">20%</text><text class="cls-21" transform="translate(214.24 187.34)">67%</text><text class="cls-21" transform="translate(214.24 119.34)">13%</text><text class="cls-21" transform="translate(140.24 119.34)">12%</text><text class="cls-21" transform="translate(140.24 180.34)">64%</text><text class="cls-11" transform="translate(140.24 258.34)">25%</text><text class="cls-11" transform="translate(68.24 252.34)">31%</text><text class="cls-21" transform="translate(68.24 172.34)">61%</text><text class="cls-21" transform="translate(71.57 114.34)">7%</text></g></svg>