<svg xmlns="http://www.w3.org/2000/svg" viewBox="0 0 450 379"><defs><style>.cls-1{font-size:18px;}.cls-1,.cls-12,.cls-16,.cls-20{font-family:Avenir-Medium, Avenir;font-weight:500;}.cls-2{font-size:14px;}.cls-10,.cls-11,.cls-2{font-family:Avenir-Book, Avenir;}.cls-3{letter-spacing:-0.09em;}.cls-16,.cls-20,.cls-4{font-size:12px;}.cls-17,.cls-4{font-family:Avenir-Roman, Avenir;}.cls-5{letter-spacing:0em;}.cls-6,.cls-7{fill:none;}.cls-6{stroke:#d9d9d9;stroke-linejoin:round;stroke-dasharray:1 1;}.cls-7{stroke:#000;stroke-miterlimit:10;stroke-width:0.75px;}.cls-17,.cls-8{font-size:10px;}.cls-8{font-family:Avenir-Heavy, Avenir;font-weight:800;}.cls-11,.cls-9{letter-spacing:-0.02em;}.cls-10,.cls-11{font-weight:400;}.cls-13{letter-spacing:-0.02em;}.cls-14{letter-spacing:-0.04em;}.cls-15{letter-spacing:0em;}.cls-18{fill:#008bb0;}.cls-19{fill:#17497c;}.cls-20{fill:#fff;}</style></defs><title>_charts2</title><g id="axis"><text class="cls-1" transform="translate(2.02 17.34)">Families Holding Capital Assets</text><text class="cls-2" transform="translate(2.02 36.34)">Median value by race or ethnicit<tspan class="cls-3" x="200.42" y="0">y</tspan><tspan x="205.88" y="0">, 2018</tspan></text><text class="cls-4" transform="translate(25.02 68.34)">Pub<tspan class="cls-5" x="21.12" y="0">l</tspan><tspan x="24.01" y="0">icly traded stocks</tspan></text><text class="cls-4" transform="translate(200.02 68.34)">Net equity in privately held businesses</text><line class="cls-6" x1="112.67" y1="83" x2="112.67" y2="290"/><line class="cls-6" x1="168.83" y1="83" x2="168.83" y2="290"/><line class="cls-6" x1="225" y1="83" x2="225" y2="290"/><line class="cls-6" x1="281.17" y1="83" x2="281.17" y2="290"/><line class="cls-6" x1="337.33" y1="83" x2="337.33" y2="290"/><line class="cls-6" x1="393.5" y1="83" x2="393.5" y2="290"/><line class="cls-7" x1="56.5" y1="83" x2="56.5" y2="290"/></g><g id="value"><text class="cls-8" transform="translate(2.02 327.34)">Sou<tspan class="cls-9" x="17.58" y="0">r</tspan><tspan x="21.29" y="0">ce:</tspan><tspan class="cls-10" x="34.81" y="0" xml:space="preserve"> The Federal Reserve Boa</tspan><tspan class="cls-11" x="148.92" y="0">r</tspan><tspan class="cls-10" x="152.06" y="0">d, 2016 Survey of Consumer Finances, October 2017.</tspan><tspan x="0" y="12">Notes:</tspan><tspan class="cls-12" x="31.09" y="12"> </tspan><tspan class="cls-10" x="33.87" y="12">Corporate stocks and equity in partnerships, S corporations, estates, and trusts cumula</tspan><tspan class="cls-10" x="419.54" y="12">-</tspan><tspan class="cls-10"><tspan x="0" y="24">tively constitute 80 pe</tspan><tspan class="cls-9" x="98.5" y="24">r</tspan><tspan x="101.64" y="24">cent of total net capital gains and net capital losses. No other type of </tspan><tspan x="0" y="36">asset exceeds 5 pe</tspan><tspan class="cls-9" x="84.85" y="36">r</tspan><tspan x="87.99" y="36">cent of the total. See Cong</tspan><tspan class="cls-13" x="208.74" y="36">r</tspan><tspan x="211.88" y="36">essional Budget O</tspan><tspan class="cls-9" x="294.29" y="36">f</tspan><tspan x="297.07" y="36">fice, “The Distribution of </tspan><tspan x="0" y="48">Asset Holdings and Capital Gains” (</tspan><tspan class="cls-14" x="159.64" y="48">W</tspan><tspan class="cls-15" x="168.71" y="48">ashington, DC: Cong</tspan><tspan class="cls-9" x="262.8" y="48">r</tspan><tspan x="265.94" y="48">essional Budget O</tspan><tspan class="cls-9" x="348.36" y="48">f</tspan><tspan x="351.14" y="48">fice, 2016).</tspan></tspan></text><text class="cls-16" transform="translate(16.81 214.34)">White</text><text class="cls-16" transform="translate(16.81 266.34)">Other</text><text class="cls-16" transform="translate(3.03 164.34)">Hispanic</text><text class="cls-16" transform="translate(20.34 114.34)">Black</text><text class="cls-17" transform="translate(53.24 302.34)">0</text><text class="cls-17" transform="translate(94.95 302.34)">$20,000</text><text class="cls-17" transform="translate(150.95 302.34)">$40,000</text><text class="cls-17" transform="translate(206.95 302.34)">$60,000</text><text class="cls-17" transform="translate(262.95 302.34)">$80,000</text><text class="cls-17" transform="translate(315.17 302.34)">$100,000</text><text class="cls-17" transform="translate(370.17 302.34)">$120,000</text><rect class="cls-18" x="4" y="60" width="15" height="10"/><rect class="cls-18" x="57" y="90" width="21" height="20"/><rect class="cls-19" x="179" y="60" width="15" height="10"/><rect class="cls-19" x="57" y="110" width="77" height="20"/><rect class="cls-18" x="57" y="141" width="30" height="20"/><rect class="cls-19" x="57" y="161" width="84" height="20"/><rect class="cls-18" x="57" y="192" width="84" height="20"/><rect class="cls-19" x="57" y="212" width="280" height="20"/><rect class="cls-18" x="57" y="243" width="56" height="20"/><rect class="cls-19" x="57" y="263" width="189" height="20"/><text class="cls-16" transform="translate(81.02 104.34)">$7,500</text><text class="cls-20" transform="translate(85.02 124.34)">$27,700</text><text class="cls-16" transform="translate(90.02 154.34)">$11,000</text><text class="cls-20" transform="translate(90.02 174.34)">$30,000</text><text class="cls-20" transform="translate(65.02 257.34)">$20,000</text><text class="cls-20" transform="translate(197.02 277.34)">$67,500</text><text class="cls-20" transform="translate(90.02 206.34)">$30,000</text><text class="cls-20" transform="translate(280.02 227.34)">$100,000</text></g></svg>