<svg xmlns="http://www.w3.org/2000/svg" viewBox="0 0 450 552"><defs><style>.cls-1{font-size:18px;}.cls-1,.cls-25,.cls-29,.cls-30{font-family:Avenir-Medium, Avenir;font-weight:500;}.cls-2{font-size:14px;}.cls-12,.cls-13,.cls-14,.cls-18,.cls-19,.cls-2,.cls-20,.cls-26{font-family:Avenir-Book, Avenir;}.cls-3,.cls-4{fill:none;}.cls-3{stroke:#d9d9d9;stroke-linejoin:round;stroke-dasharray:1 1;}.cls-4{stroke:#000;stroke-miterlimit:10;}.cls-5{fill:#f0573d;}.cls-6{fill:#fcb64b;}.cls-7{fill:#008bb0;}.cls-8{fill:#17497c;}.cls-10,.cls-28,.cls-9{font-size:10px;}.cls-34,.cls-9{font-family:Avenir-Roman, Avenir;}.cls-10,.cls-31{font-family:Avenir-Heavy, Avenir;font-weight:800;}.cls-11,.cls-13,.cls-15,.cls-20{letter-spacing:-0.02em;}.cls-12,.cls-13,.cls-14,.cls-15,.cls-16,.cls-17,.cls-26{font-weight:400;}.cls-14{letter-spacing:-0.11em;}.cls-15,.cls-16,.cls-17{font-family:Avenir-BookOblique, Avenir;font-style:oblique;}.cls-17,.cls-23{letter-spacing:-0.02em;}.cls-18,.cls-19,.cls-20{font-style:normal;}.cls-19{letter-spacing:-0.18em;}.cls-21{letter-spacing:-0.09em;}.cls-22{letter-spacing:0em;}.cls-24{letter-spacing:-0.09em;}.cls-26{font-size:8px;}.cls-27{letter-spacing:-0.15em;}.cls-29,.cls-30,.cls-31,.cls-34{font-size:12px;}.cls-29{fill:#fff;}.cls-32{letter-spacing:-0.02em;}.cls-33{letter-spacing:0em;}</style></defs><title>_charts2</title><g id="axis"><text class="cls-1" transform="translate(6.02 20.34)">Charitable Giving</text><text class="cls-2" transform="translate(6.02 39.34)">By race or ethnicity</text><line class="cls-3" x1="193" y1="434.68" x2="193" y2="79.42"/><line class="cls-3" x1="240" y1="434.68" x2="240" y2="79.42"/><line class="cls-3" x1="287.01" y1="434.68" x2="287.01" y2="79.42"/><line class="cls-3" x1="334.01" y1="434.68" x2="334.01" y2="79.42"/><line class="cls-3" x1="381.01" y1="434.68" x2="381.01" y2="79.42"/><line class="cls-3" x1="428.02" y1="434.68" x2="428.02" y2="79.42"/><line class="cls-4" x1="193" y1="247.45" x2="198.88" y2="247.45"/><rect class="cls-5" x="193" y="389.55" width="7.05" height="19.4"/><rect class="cls-6" x="193" y="369.99" width="4.7" height="19.4"/><rect class="cls-7" x="193" y="350.43" width="7.05" height="19.4"/><rect class="cls-8" x="193" y="274.87" width="197.42" height="19.4"/><rect class="cls-5" x="193" y="255.31" width="211.52" height="19.4"/><rect class="cls-6" x="193" y="235.75" width="206.82" height="19.4"/><rect class="cls-7" x="193" y="216.19" width="216.22" height="19.4"/><rect class="cls-8" x="193" y="144.63" width="138.66" height="19.4"/><rect class="cls-5" x="193" y="125.07" width="136.31" height="19.4"/><rect class="cls-6" x="193" y="105.51" width="77.56" height="19.4"/><rect class="cls-7" x="193" y="85.95" width="79.91" height="19.4"/><text class="cls-9" transform="translate(189.11 449.92)">0</text><text class="cls-9" transform="translate(231.17 449.92)">20%</text><text class="cls-9" transform="translate(278.17 449.92)">40%</text><text class="cls-9" transform="translate(325.17 449.92)">60%</text><text class="cls-9" transform="translate(372.17 449.92)">80%</text><text class="cls-9" transform="translate(416.39 449.92)">100%</text><line class="cls-4" x1="193" y1="434.68" x2="193" y2="80.23"/></g><g id="value"><text class="cls-10" transform="translate(5.02 475.34)">Sou<tspan class="cls-11" x="17.58" y="0">r</tspan><tspan x="21.29" y="0">ce:</tspan><tspan class="cls-12" x="34.81" y="0"> </tspan><tspan class="cls-13" x="37.59" y="0">W</tspan><tspan class="cls-12" x="46.85" y="0">omen</tspan><tspan class="cls-14" x="72.42" y="0">’</tspan><tspan class="cls-12" x="73.91" y="0">s Philanth</tspan><tspan class="cls-13" x="116.68" y="0">r</tspan><tspan class="cls-12" x="119.82" y="0">opy Institute, </tspan><tspan class="cls-15" x="180.96" y="0">W</tspan><tspan class="cls-16" x="190.22" y="0">omen Give 2019: Gender and Giving ac</tspan><tspan class="cls-17" x="367.87" y="0">r</tspan><tspan class="cls-16" x="371.01" y="0">oss </tspan><tspan class="cls-16"><tspan x="0" y="12">Communities of Color</tspan><tspan class="cls-18" x="98.14" y="12" xml:space="preserve"> (Indianapolis: Indiana University</tspan><tspan class="cls-19" x="241.57" y="12"> </tspan><tspan class="cls-18" x="242.57" y="12">–</tspan><tspan class="cls-19" x="247.57" y="12"> </tspan><tspan class="cls-18" x="248.57" y="12">Pu</tspan><tspan class="cls-20" x="259.87" y="12">r</tspan><tspan class="cls-18" x="263.01" y="12">due University Indianapolis, Lily Family </tspan></tspan><tspan class="cls-12"><tspan x="0" y="24">School of Philanth</tspan><tspan class="cls-11" x="80.38" y="24">r</tspan><tspan x="83.52" y="24">op</tspan><tspan class="cls-21" x="95.56" y="24">y</tspan><tspan class="cls-22" x="99.46" y="24">, 2019); data a</tspan><tspan class="cls-23" x="163.2" y="24">r</tspan><tspan x="166.34" y="24">e f</tspan><tspan class="cls-11" x="177.64" y="24">r</tspan><tspan x="180.78" y="24">om the Philanth</tspan><tspan class="cls-23" x="250.95" y="24">r</tspan><tspan x="254.09" y="24">opy Panel Study and the US </tspan><tspan class="cls-24" x="381.17" y="24">T</tspan><tspan x="385.99" y="24">rust Study </tspan><tspan x="0" y="36">of High Net </tspan><tspan class="cls-11" x="55.18" y="36">W</tspan><tspan x="64.44" y="36">orth Philanth</tspan><tspan class="cls-23" x="121.08" y="36">r</tspan><tspan x="124.22" y="36">op</tspan><tspan class="cls-24" x="136.26" y="36">y</tspan><tspan x="140.16" y="36">.</tspan></tspan><tspan x="0" y="50">Notes:</tspan><tspan class="cls-25" x="31.09" y="50"> </tspan><tspan class="cls-12" x="33.87" y="50">NA = data not included. </tspan><tspan class="cls-26"><tspan x="0" y="58">a</tspan><tspan class="cls-27" x="4.15" y="58"> </tspan><tspan class="cls-28" x="5.15" y="62">High-net-worth households include those with net worth exceeding $1 million or annual </tspan></tspan><tspan class="cls-12"><tspan x="0" y="74">household income exceeding $200,000.</tspan></tspan></text><text class="cls-29" transform="translate(244.34 99.89)">34%</text><text class="cls-30" transform="translate(240.34 119.89)">33%</text><text class="cls-29" transform="translate(297.34 139.89)">58%</text><text class="cls-29" transform="translate(301.34 159.89)">59%</text><text class="cls-29" transform="translate(379.34 229.89)">92%</text><text class="cls-30" transform="translate(204.34 363.89)">3%</text><text class="cls-30" transform="translate(200.34 383.89)">2%</text><text class="cls-30" transform="translate(204.34 403.89)">3%</text><text class="cls-30" transform="translate(197.34 425.89)">NA</text><text class="cls-30" transform="translate(367.34 249.89)">88%</text><text class="cls-29" transform="translate(375.34 268.89)">90%</text><text class="cls-29" transform="translate(357.34 287.89)">84%</text><text class="cls-31" transform="translate(26.89 67.19)">Sha<tspan class="cls-32" x="20.22" y="0">r</tspan><tspan x="24.67" y="0">e of general popula</tspan><tspan class="cls-33" x="135.1" y="0">t</tspan><tspan x="139.78" y="0">ion </tspan><tspan x="77.11" y="14.4">giving in 2015</tspan></text><text class="cls-31" transform="translate(50.23 197.19)">Sha<tspan class="cls-32" x="20.22" y="0">r</tspan><tspan x="24.67" y="0">e of high-net-wor</tspan><tspan class="cls-33" x="122.2" y="0">t</tspan><tspan x="126.88" y="0">h </tspan><tspan x="-17.5" y="14.4">households giving in 2018ª</tspan></text><text class="cls-31" transform="translate(13.99 327.19)">Charitable giving as a sha<tspan class="cls-32" x="143.58" y="0">r</tspan><tspan x="148.03" y="0">e of </tspan><tspan x="84.05" y="14.4">income in 2015</tspan></text><text class="cls-34" transform="translate(155.37 100.02)">Black</text><text class="cls-34" transform="translate(138.27 120.02)">Hispanic</text><text class="cls-34" transform="translate(151.82 140.02)">White</text><text class="cls-34" transform="translate(154.49 160.02)">Asian</text><text class="cls-34" transform="translate(155.37 230.02)">Black</text><text class="cls-34" transform="translate(138.27 250.02)">Hispanic</text><text class="cls-34" transform="translate(151.82 270.02)">White</text><text class="cls-34" transform="translate(154.49 290.02)">Asian</text><text class="cls-34" transform="translate(155.37 364.02)">Black</text><text class="cls-34" transform="translate(138.27 384.02)">Hispanic</text><text class="cls-34" transform="translate(151.82 404.02)">White</text><text class="cls-34" transform="translate(154.49 424.02)">Asian</text></g></svg>