<svg xmlns="http://www.w3.org/2000/svg" viewBox="0 0 450 496"><defs><style>.cls-1{font-size:18px;}.cls-1,.cls-20,.cls-21{font-family:Avenir-Medium, Avenir;font-weight:500;}.cls-2{font-size:14px;}.cls-2,.cls-7,.cls-8{font-family:Avenir-Book, Avenir;}.cls-3,.cls-5{font-size:10px;}.cls-14,.cls-3{font-family:Avenir-Roman, Avenir;}.cls-15,.cls-4{fill:none;}.cls-4{stroke:#d9d9d9;stroke-linejoin:round;stroke-dasharray:1 1;}.cls-11,.cls-5{font-family:Avenir-Heavy, Avenir;font-weight:800;}.cls-6{letter-spacing:-0.02em;}.cls-7,.cls-8{font-weight:400;}.cls-8{letter-spacing:-0.11em;}.cls-9{letter-spacing:-0.02em;}.cls-10{letter-spacing:-0.09em;}.cls-11,.cls-14,.cls-20,.cls-21{font-size:12px;}.cls-12{letter-spacing:-0.02em;}.cls-13{letter-spacing:0em;}.cls-15{stroke:#000;stroke-miterlimit:10;}.cls-16{fill:#f0573d;}.cls-17{fill:#fcb64b;}.cls-18{fill:#008bb0;}.cls-19{fill:#17497c;}.cls-20{fill:#fff;}</style></defs><title>_charts2</title><g id="axis"><text class="cls-1" transform="translate(10.02 20.34)">Health Insurance Coverage</text><text class="cls-2" transform="translate(10.02 39.34)">By race or ethnicity</text><text class="cls-3" transform="translate(186.11 444.92)">0</text><text class="cls-3" transform="translate(227.17 444.92)">20%</text><text class="cls-3" transform="translate(275.17 444.92)">40%</text><text class="cls-3" transform="translate(323.17 444.92)">60%</text><text class="cls-3" transform="translate(371.17 444.92)">80%</text><text class="cls-3" transform="translate(416.39 444.92)">100%</text><line class="cls-4" x1="188.62" y1="429.69" x2="188.62" y2="83.2"/><line class="cls-4" x1="237.21" y1="429.69" x2="237.21" y2="83.2"/><line class="cls-4" x1="285.81" y1="429.69" x2="285.81" y2="83.2"/><line class="cls-4" x1="334.4" y1="429.69" x2="334.4" y2="83.2"/><line class="cls-4" x1="383" y1="429.69" x2="383" y2="83.2"/><line class="cls-4" x1="431.59" y1="429.69" x2="431.59" y2="83.2"/></g><g id="value"><text class="cls-5" transform="translate(6.02 469.34)">Sou<tspan class="cls-6" x="17.58" y="0">r</tspan><tspan x="21.29" y="0">ce:</tspan><tspan class="cls-7" x="34.81" y="0"> </tspan><tspan class="cls-8" x="37.59" y="0">T</tspan><tspan class="cls-7" x="42.22" y="0">able HI01, Health Insurance Coverage Status and </tspan><tspan class="cls-8" x="264.02" y="0">T</tspan><tspan class="cls-7" x="268.65" y="0">ype of Coverage by Selected </tspan><tspan class="cls-7"><tspan x="0" y="12">Characteristics, 2018, f</tspan><tspan class="cls-6" x="101.1" y="12">r</tspan><tspan x="104.24" y="12">om US Census Bu</tspan><tspan class="cls-9" x="183.55" y="12">r</tspan><tspan x="186.69" y="12">eau, Cur</tspan><tspan class="cls-6" x="224.48" y="12">r</tspan><tspan x="227.62" y="12">ent Population Surve</tspan><tspan class="cls-10" x="320.57" y="12">y</tspan><tspan x="324.47" y="12">, 2019 Annual Social and </tspan><tspan x="0" y="24">Economic Supplement, September 2019.</tspan></tspan></text><text class="cls-11" transform="translate(114.1 67.19)">Cove<tspan class="cls-12" x="28.66" y="0">r</tspan><tspan x="33.11" y="0">ed by </tspan><tspan x="-70.67" y="14.4">employment-based plan</tspan></text><text class="cls-11" transform="translate(58.95 204.19)">Cove<tspan class="cls-12" x="28.66" y="0">r</tspan><tspan x="33.11" y="0">ed by Me</tspan><tspan class="cls-13" x="86.45" y="0">d</tspan><tspan x="94.02" y="0">icaid</tspan></text><text class="cls-11" transform="translate(89.99 322.19)">Cove<tspan class="cls-12" x="28.66" y="0">r</tspan><tspan x="33.11" y="0">ed by any </tspan><tspan x="-3.36" y="14.4">hea</tspan><tspan class="cls-13" x="16.86" y="14.4">lt</tspan><tspan x="24.67" y="14.4">h insurance</tspan></text><text class="cls-14" transform="translate(149.49 100.02)">Asian</text><text class="cls-14" transform="translate(150.37 120.02)">Black</text><text class="cls-14" transform="translate(133.27 140.02)">Hispanic</text><text class="cls-14" transform="translate(146.82 160.02)">White</text><text class="cls-14" transform="translate(149.66 223.02)">Asian</text><text class="cls-14" transform="translate(150.55 243.02)">Black</text><text class="cls-14" transform="translate(133.45 263.02)">Hispanic</text><text class="cls-14" transform="translate(147 283.02)">White</text><text class="cls-14" transform="translate(149.66 355.02)">Asian</text><text class="cls-14" transform="translate(150.55 375.02)">Black</text><text class="cls-14" transform="translate(133.45 395.02)">Hispanic</text><text class="cls-14" transform="translate(147 415.02)">White</text><line class="cls-15" x1="188.62" y1="223.38" x2="194.69" y2="223.38"/><rect class="cls-16" x="188.62" y="401.88" width="230.83" height="19.47"/><rect class="cls-17" x="188.62" y="382.25" width="199.24" height="19.47"/><rect class="cls-18" x="188.62" y="362.62" width="218.68" height="19.47"/><rect class="cls-19" x="188.62" y="342.98" width="225.97" height="19.47"/><rect class="cls-16" x="188.62" y="269.35" width="29.16" height="19.47"/><rect class="cls-17" x="188.62" y="249.72" width="72.89" height="19.47"/><rect class="cls-18" x="188.62" y="230.09" width="70.46" height="19.47"/><rect class="cls-19" x="188.62" y="210.46" width="36.45" height="19.47"/><rect class="cls-16" x="188.62" y="145.83" width="148.21" height="19.47"/><rect class="cls-17" x="188.62" y="126.19" width="102.05" height="19.47"/><rect class="cls-18" x="188.62" y="106.56" width="114.2" height="19.47"/><rect class="cls-19" x="188.62" y="86.93" width="143.36" height="19.47"/><line class="cls-15" x1="188.62" y1="429.69" x2="188.62" y2="83.06"/><text class="cls-20" transform="translate(303.34 100.89)">59%</text><text class="cls-20" transform="translate(273.34 121.89)">47%</text><text class="cls-21" transform="translate(262.34 140.89)">42%</text><text class="cls-20" transform="translate(307.34 159.89)">61%</text><text class="cls-20" transform="translate(195.34 224.89)">15%</text><text class="cls-20" transform="translate(384.34 356.89)">93%</text><text class="cls-20" transform="translate(376.34 376.89)">90%</text><text class="cls-21" transform="translate(358.34 396.89)">82%</text><text class="cls-20" transform="translate(388.34 415.89)">95%</text><text class="cls-20" transform="translate(229.34 244.89)">29%</text><text class="cls-21" transform="translate(232.34 263.89)">30%</text><text class="cls-20" transform="translate(190.34 284.89)">12%</text></g></svg>