<svg xmlns="http://www.w3.org/2000/svg" viewBox="0 0 450 632"><defs><style>.cls-1{font-size:18px;}.cls-1,.cls-27,.cls-28{font-family:Avenir-Medium, Avenir;font-weight:500;}.cls-2{font-size:14px;}.cls-10,.cls-15,.cls-2,.cls-7,.cls-8,.cls-9{font-family:Avenir-Book, Avenir;}.cls-3,.cls-5{font-size:10px;}.cls-21,.cls-3{font-family:Avenir-Roman, Avenir;}.cls-22,.cls-4{fill:none;}.cls-4{stroke:#d9d9d9;stroke-linejoin:round;stroke-dasharray:1 1;}.cls-16,.cls-5{font-family:Avenir-Heavy, Avenir;font-weight:800;}.cls-15,.cls-6{letter-spacing:-0.02em;}.cls-10,.cls-15,.cls-7,.cls-8,.cls-9{font-weight:400;}.cls-8{letter-spacing:-0.11em;}.cls-9{letter-spacing:-0.09em;}.cls-10,.cls-11{letter-spacing:-0.02em;}.cls-12{letter-spacing:-0.06em;}.cls-13{letter-spacing:-0.09em;}.cls-14{letter-spacing:0em;}.cls-16,.cls-21,.cls-27,.cls-28{font-size:12px;}.cls-17{letter-spacing:-0.02em;}.cls-18{letter-spacing:0em;}.cls-19{letter-spacing:0em;}.cls-20{letter-spacing:-0.02em;}.cls-22{stroke:#000;stroke-miterlimit:10;}.cls-23{fill:#f0573d;}.cls-24{fill:#fcb64b;}.cls-25{fill:#008bb0;}.cls-26{fill:#17497c;}.cls-27{fill:#fff;}</style></defs><title>_charts2</title><g id="value"><text class="cls-1" transform="translate(9.96 20.04)">Homeownership, Costs, and Homelessness</text><text class="cls-2" transform="translate(9.96 39.04)">By race or ethnicity</text><text class="cls-3" transform="translate(186.05 494.62)">0</text><text class="cls-3" transform="translate(227.1 494.62)">20%</text><text class="cls-3" transform="translate(275.1 494.62)">40%</text><text class="cls-3" transform="translate(323.1 494.62)">60%</text><text class="cls-3" transform="translate(371.1 494.62)">80%</text><text class="cls-3" transform="translate(416.32 494.62)">100%</text><line class="cls-4" x1="188.55" y1="479.39" x2="188.55" y2="82.9"/><line class="cls-4" x1="237.15" y1="479.39" x2="237.15" y2="82.9"/><line class="cls-4" x1="285.74" y1="479.39" x2="285.74" y2="82.9"/><line class="cls-4" x1="334.34" y1="479.39" x2="334.34" y2="82.9"/><line class="cls-4" x1="382.93" y1="479.39" x2="382.93" y2="82.9"/><line class="cls-4" x1="431.53" y1="479.39" x2="431.53" y2="82.9"/><text class="cls-5" transform="translate(5.96 519.05)">Sou<tspan class="cls-6" x="17.58" y="0">r</tspan><tspan x="21.29" y="0">ce:</tspan><tspan class="cls-7" x="34.81" y="0" xml:space="preserve">  </tspan><tspan class="cls-8" x="40.37" y="0">T</tspan><tspan class="cls-7" x="45" y="0">able 16, Homeownership Rates by Race and Ethnicity of Householde</tspan><tspan class="cls-9" x="350.98" y="0">r</tspan><tspan class="cls-7" x="353.38" y="0">, 1994 to P</tspan><tspan class="cls-10" x="401.73" y="0">r</tspan><tspan class="cls-7" x="404.87" y="0">esent, </tspan><tspan class="cls-7"><tspan x="0" y="12">February 2019, f</tspan><tspan class="cls-6" x="72.98" y="12">r</tspan><tspan x="76.12" y="12">om US Census Bu</tspan><tspan class="cls-11" x="155.43" y="12">r</tspan><tspan x="158.57" y="12">eau, Cur</tspan><tspan class="cls-6" x="196.36" y="12">r</tspan><tspan x="199.5" y="12">ent Population Survey/Housing </tspan><tspan class="cls-12" x="340.79" y="12">V</tspan><tspan x="346.35" y="12">acancy Survey; US </tspan><tspan x="0" y="24">Census Bu</tspan><tspan class="cls-6" x="46.88" y="24">r</tspan><tspan x="50.02" y="24">eau, American Housing Surve</tspan><tspan class="cls-13" x="181.54" y="24">y</tspan><tspan class="cls-14" x="185.44" y="24">, 2017 National – General Housing Data – All Occupied </tspan><tspan x="0" y="36">Units, accessed July 2019; and Exhibit 1.3, Demographic Characteristics of People Experiencing </tspan><tspan x="0" y="48">Homelessness, December 2018.</tspan></tspan><tspan x="0" y="62">Notes:</tspan><tspan class="cls-7" x="31.09" y="62" xml:space="preserve"> Homeownership rates a</tspan><tspan class="cls-15" x="139.42" y="62">r</tspan><tspan class="cls-7" x="142.56" y="62">e unweighted averages of 2018&apos;s quarters. The “Asian” category </tspan><tspan class="cls-7"><tspan x="0" y="74">includes data for Native Hawaiian and Pacific Islanders; monthly housing costs only includes data </tspan><tspan x="0" y="86">for general housing occupied units, and include households with ze</tspan><tspan class="cls-6" x="300.21" y="86">r</tspan><tspan x="303.35" y="86">o or negative income; </tspan><tspan x="0" y="98">homelessness estimates a</tspan><tspan class="cls-6" x="114.83" y="98">r</tspan><tspan x="117.97" y="98">e point estimates conducted by local planning bodies on a single night </tspan><tspan x="0" y="110">in January 2018.</tspan></tspan></text><text class="cls-16" transform="translate(38.52 66.88)"><tspan class="cls-17">A</tspan><tspan x="8.45" y="0">verage homeownership </tspan><tspan x="30.91" y="14.4">rate for households</tspan></text><text class="cls-16" transform="translate(20.53 203.88)">Mon<tspan class="cls-18" x="25.32" y="0">t</tspan><tspan x="30" y="0">hly housing costs mo</tspan><tspan class="cls-17" x="147.07" y="0">r</tspan><tspan x="151.52" y="0">e </tspan><tspan class="cls-18" x="53.97" y="14.4">t</tspan><tspan x="58.65" y="14.4">han 50 pe</tspan><tspan class="cls-17" x="114.63" y="14.4">r</tspan><tspan x="119.08" y="14.4">cent of </tspan><tspan x="56.22" y="28.8">household income</tspan></text><text class="cls-16" transform="translate(37.06 361.88)">Sha<tspan class="cls-17" x="20.22" y="0">r</tspan><tspan x="24.67" y="0">e of total popula</tspan><tspan class="cls-18" x="118.87" y="0">t</tspan><tspan x="123.55" y="0">ion </tspan><tspan x="-12" y="14.4">experiencing homelessness </tspan><tspan x="-4.48" y="28.8">(she</tspan><tspan class="cls-18" x="18.18" y="28.8">l</tspan><tspan x="21.31" y="28.8">te</tspan><tspan class="cls-17" x="32.87" y="28.8">r</tspan><tspan x="37.32" y="28.8">ed or unshe</tspan><tspan class="cls-19" x="103.74" y="28.8">l</tspan><tspan x="106.87" y="28.8">te</tspan><tspan class="cls-20" x="118.42" y="28.8">r</tspan><tspan x="122.88" y="28.8">ed)</tspan></text><text class="cls-21" transform="translate(149.42 99.72)">Asian</text><text class="cls-21" transform="translate(150.31 119.72)">Black</text><text class="cls-21" transform="translate(133.21 139.72)">Hispanic</text><text class="cls-21" transform="translate(146.76 159.72)">White</text><text class="cls-21" transform="translate(149.6 252.72)">Asian</text><text class="cls-21" transform="translate(150.49 272.72)">Black</text><text class="cls-21" transform="translate(133.39 292.72)">Hispanic</text><text class="cls-21" transform="translate(146.93 312.72)">White</text><text class="cls-21" transform="translate(149.6 404.72)">Asian</text><text class="cls-21" transform="translate(150.49 424.72)">Black</text><text class="cls-21" transform="translate(133.39 444.72)">Hispanic</text><text class="cls-21" transform="translate(146.93 464.72)">White</text><line class="cls-22" x1="188.55" y1="253.07" x2="194.63" y2="253.07"/><rect class="cls-23" x="188.55" y="451.57" width="118.45" height="19.47"/><rect class="cls-24" x="188.55" y="431.94" width="53.45" height="19.47"/><rect class="cls-25" x="188.55" y="412.31" width="96.45" height="19.47"/><rect class="cls-26" x="188.55" y="392.68" width="2.45" height="19.47"/><rect class="cls-23" x="188.55" y="299.05" width="38.45" height="19.47"/><rect class="cls-24" x="188.55" y="279.42" width="55.45" height="19.47"/><rect class="cls-25" x="188.55" y="259.78" width="62.45" height="19.47"/><rect class="cls-26" x="188.55" y="240.15" width="48.45" height="19.47"/><rect class="cls-23" x="188.55" y="145.52" width="176.45" height="19.47"/><rect class="cls-24" x="188.55" y="125.89" width="113.45" height="19.47"/><rect class="cls-25" x="188.55" y="106.26" width="101.45" height="19.47"/><rect class="cls-26" x="188.55" y="86.63" width="140.45" height="19.47"/><line class="cls-22" x1="188.55" y1="479.39" x2="188.55" y2="82.75"/><text class="cls-27" transform="translate(297.28 100.59)">58%</text><text class="cls-27" transform="translate(259.28 121.59)">42%</text><text class="cls-28" transform="translate(271.28 140.59)">47%</text><text class="cls-27" transform="translate(335.28 159.59)">73%</text><text class="cls-27" transform="translate(206.28 254.59)">20%</text><text class="cls-28" transform="translate(194.28 406.59)">1%</text><text class="cls-27" transform="translate(254.28 426.59)">40%</text><text class="cls-28" transform="translate(212.28 446.59)">22%</text><text class="cls-27" transform="translate(276.28 465.59)">49%</text><text class="cls-27" transform="translate(220.28 274.59)">26%</text><text class="cls-28" transform="translate(213.28 293.59)">23%</text><text class="cls-27" transform="translate(196.28 314.59)">16%</text></g></svg>