<svg xmlns="http://www.w3.org/2000/svg" viewBox="0 0 450 442"><defs><style>.cls-1,.cls-25{fill:none;}.cls-1{stroke:#d9d9d9;stroke-linejoin:round;stroke-dasharray:1 1;}.cls-2{font-size:18px;}.cls-2,.cls-26,.cls-9{font-family:Avenir-Medium, Avenir;font-weight:500;}.cls-3{font-size:14px;}.cls-12,.cls-13,.cls-14,.cls-15,.cls-3{font-family:Avenir-Book, Avenir;}.cls-4{letter-spacing:-0.09em;}.cls-10,.cls-5{font-size:10px;}.cls-20,.cls-5{font-family:Avenir-Roman, Avenir;}.cls-20,.cls-26,.cls-6,.cls-9{font-size:12px;}.cls-6{fill:#565656;font-family:Avenir-BookOblique, Avenir;font-style:oblique;}.cls-7{letter-spacing:-0.02em;}.cls-8{letter-spacing:0em;}.cls-10{font-family:Avenir-Heavy, Avenir;font-weight:800;}.cls-11,.cls-13{letter-spacing:-0.02em;}.cls-12,.cls-13,.cls-14,.cls-15{font-weight:400;}.cls-14,.cls-17{letter-spacing:-0.02em;}.cls-15,.cls-18{letter-spacing:-0.09em;}.cls-16{letter-spacing:-0.11em;}.cls-19{letter-spacing:0.02em;}.cls-21{letter-spacing:-0.08em;}.cls-22{fill:#174a7c;}.cls-23{fill:#f0573e;}.cls-24{fill:#fcb64b;}.cls-25{stroke:#000;stroke-miterlimit:10;stroke-width:0.75px;}.cls-26{fill:#fff;}</style></defs><title>_charts2</title><g id="axis"><line class="cls-1" x1="39.86" y1="139.94" x2="344.86" y2="139.94"/><line class="cls-1" x1="39.86" y1="156.99" x2="344.86" y2="156.99"/><line class="cls-1" x1="39.86" y1="174.05" x2="344.86" y2="174.05"/><line class="cls-1" x1="39.86" y1="191.1" x2="344.86" y2="191.1"/><line class="cls-1" x1="39.86" y1="208.16" x2="344.86" y2="208.16"/><line class="cls-1" x1="39.86" y1="225.21" x2="344.86" y2="225.21"/><line class="cls-1" x1="39.86" y1="242.27" x2="344.86" y2="242.27"/><line class="cls-1" x1="39.86" y1="259.33" x2="344.86" y2="259.33"/><line class="cls-1" x1="39.86" y1="276.38" x2="344.86" y2="276.38"/><line class="cls-1" x1="39.86" y1="293.44" x2="344.86" y2="293.44"/></g><g id="value"><text class="cls-2" transform="translate(6.88 19.28)">Summary of Household Income</text><text class="cls-3" transform="translate(6.88 38.28)">By race or ethnicit<tspan class="cls-4" x="112.75" y="0">y</tspan><tspan x="118.21" y="0">, 2018</tspan></text><text class="cls-5" transform="translate(7.87 142.28)">100%</text><text class="cls-5" transform="translate(13.43 159.28)">90%</text><text class="cls-5" transform="translate(13.43 176.28)">80%</text><text class="cls-5" transform="translate(13.43 193.28)">70%</text><text class="cls-5" transform="translate(13.43 210.28)">60%</text><text class="cls-5" transform="translate(13.43 227.28)">50%</text><text class="cls-5" transform="translate(13.43 244.28)">40%</text><text class="cls-5" transform="translate(13.43 261.28)">30%</text><text class="cls-5" transform="translate(13.43 278.28)">20%</text><text class="cls-5" transform="translate(13.43 295.28)">10%</text><text class="cls-5" transform="translate(18.99 312.28)">0%</text><text class="cls-6" transform="translate(6.88 124.28)">Pe<tspan class="cls-7" x="13.56" y="0">r</tspan><tspan class="cls-8" x="17.33" y="0">centage of total</tspan></text><text class="cls-9" transform="translate(285.11 323.28)">Asian</text><text class="cls-9" transform="translate(69.54 323.28)">Black</text><text class="cls-9" transform="translate(132.89 323.28)">Hispanic</text><text class="cls-10" transform="translate(6.88 346.28)">Sou<tspan class="cls-11" x="17.58" y="0">r</tspan><tspan x="21.29" y="0">ce:</tspan><tspan class="cls-12" x="34.81" y="0" xml:space="preserve">  US Census Bu</tspan><tspan class="cls-13" x="102.45" y="0">r</tspan><tspan class="cls-12" x="105.59" y="0">eau, Cur</tspan><tspan class="cls-14" x="143.38" y="0">r</tspan><tspan class="cls-12" x="146.52" y="0">ent Population Surve</tspan><tspan class="cls-15" x="239.48" y="0">y</tspan><tspan class="cls-12" x="243.38" y="0">, 2019 Annual Social and Economic </tspan><tspan class="cls-12"><tspan x="0" y="12">Supplement, September 2019; “HINC-01, Selected Characteristics of Households, by </tspan><tspan class="cls-16" x="382.85" y="12">T</tspan><tspan x="387.48" y="12">otal </tspan><tspan x="0" y="24">Money Income in 2018,” US Census Bu</tspan><tspan class="cls-11" x="175.17" y="24">r</tspan><tspan x="178.31" y="24">eau, Cur</tspan><tspan class="cls-17" x="216.1" y="24">r</tspan><tspan x="219.24" y="24">ent Population Surve</tspan><tspan class="cls-18" x="312.19" y="24">y</tspan><tspan x="316.09" y="24">, 2019 Annual Social and </tspan><tspan x="0" y="36">Economic Supplement, September 2019.</tspan></tspan><tspan x="0" y="50">Note:</tspan><tspan class="cls-12" x="26.65" y="50" xml:space="preserve">  Data a</tspan><tspan class="cls-13" x="61.29" y="50">r</tspan><tspan class="cls-12" x="64.43" y="50">e based on personal income (money income), which consists of 23 income compo</tspan><tspan class="cls-12" x="428.82" y="50">-</tspan><tspan class="cls-12"><tspan x="0" y="62">nents, including wages or salaries, inte</tspan><tspan class="cls-11" x="171.65" y="62">r</tspan><tspan x="174.79" y="62">est and dividends, </tspan><tspan class="cls-17" x="259.23" y="62">r</tspan><tspan x="262.37" y="62">ent and </tspan><tspan class="cls-11" x="299.23" y="62">r</tspan><tspan x="302.37" y="62">oyalties, Social Security </tspan><tspan x="0" y="74">benefits, gove</tspan><tspan class="cls-19" x="63.71" y="74">r</tspan><tspan x="67.21" y="74">nment pensions and annuities, unemployment compensation, </tspan><tspan class="cls-16" x="344.85" y="74">T</tspan><tspan x="349.48" y="74">emporary Assis</tspan><tspan x="417.07" y="74">-</tspan><tspan x="0" y="86">tance for Needy Families benefits, alimon</tspan><tspan class="cls-18" x="185.19" y="86">y</tspan><tspan x="189.09" y="86">, and veterans’ pensions.</tspan></tspan></text><text class="cls-9" transform="translate(213.78 323.28)">White</text><text class="cls-20" transform="translate(34.02 82.34)">$50,000<tspan class="cls-21" x="43.37" y="0"> </tspan><tspan x="45.77" y="0">–</tspan><tspan class="cls-21" x="51.77" y="0"> </tspan><tspan x="54.17" y="0">$100,000</tspan></text><text class="cls-20" transform="translate(34.02 63.34)">Over $100,000</text><text class="cls-20" transform="translate(34.02 101.34)">Under $50,000 </text><rect class="cls-22" x="15" y="93" width="15" height="10"/><rect class="cls-23" x="15" y="74" width="15" height="10"/><rect class="cls-24" x="15" y="55" width="15" height="10"/><rect class="cls-24" x="282.23" y="140" width="34.77" height="76.25"/><rect class="cls-24" x="66.01" y="140" width="34.77" height="28.81"/><rect class="cls-24" x="139.3" y="140" width="34.77" height="33.89"/><rect class="cls-24" x="212.6" y="140.69" width="34.77" height="58.61"/><rect class="cls-23" x="282.23" y="216.25" width="34.77" height="44.06"/><rect class="cls-23" x="66.01" y="168.81" width="34.77" height="44.06"/><rect class="cls-23" x="139.3" y="173.89" width="34.77" height="54.22"/><rect class="cls-23" x="212.6" y="199.31" width="34.77" height="50.83"/><rect class="cls-22" x="282.23" y="260.31" width="34.77" height="49.14"/><rect class="cls-22" x="66.01" y="212.86" width="34.77" height="96.58"/><rect class="cls-22" x="139.3" y="228.11" width="34.77" height="81.33"/><rect class="cls-22" x="212.6" y="250.14" width="34.77" height="59.31"/><line class="cls-25" x1="39.86" y1="309.44" x2="344.86" y2="309.44"/><text class="cls-9" transform="translate(71.7 159.4)">17%</text><text class="cls-9" transform="translate(144.7 159.4)">20%</text><text class="cls-26" transform="translate(144.7 204.4)">32%</text><text class="cls-26" transform="translate(144.7 272.4)">48%</text><text class="cls-26" transform="translate(217.7 284.4)">35%</text><text class="cls-26" transform="translate(217.7 230.4)">30%</text><text class="cls-26" transform="translate(287.7 242.4)">26%</text><text class="cls-26" transform="translate(287.7 289.4)">29%</text><text class="cls-9" transform="translate(218.7 174.4)">34%</text><text class="cls-9" transform="translate(287.7 181.4)">45%</text><text class="cls-26" transform="translate(71.7 193.4)">26%</text><text class="cls-26" transform="translate(71.7 272.4)">57%</text></g></svg>