<svg xmlns="http://www.w3.org/2000/svg" viewBox="0 0 450 393"><defs><style>.cls-1,.cls-19{font-size:10px;}.cls-1{font-family:Avenir-Heavy, Avenir;font-weight:800;}.cls-2,.cls-4{letter-spacing:-0.02em;}.cls-22,.cls-3,.cls-4{font-family:Avenir-Book, Avenir;}.cls-3,.cls-4{font-weight:400;}.cls-5{letter-spacing:-0.02em;}.cls-26,.cls-6{font-size:12px;}.cls-19,.cls-6{font-family:Avenir-Roman, Avenir;}.cls-7{fill:#fcbe54;}.cls-8{fill:#f26246;}.cls-9{fill:#174a7c;}.cls-10{letter-spacing:0em;}.cls-11{letter-spacing:0em;}.cls-12{fill:#bcbec0;}.cls-13,.cls-14,.cls-15,.cls-16,.cls-17,.cls-18{fill:none;}.cls-13{stroke:#d9d9d9;stroke-dasharray:1 1;}.cls-13,.cls-14,.cls-15,.cls-16,.cls-17{stroke-linejoin:round;}.cls-14{stroke:#000;}.cls-15{stroke:#fcbe54;}.cls-15,.cls-16,.cls-17{stroke-linecap:round;}.cls-15,.cls-16,.cls-17,.cls-18{stroke-width:2px;}.cls-16{stroke:#f26246;}.cls-17{stroke:#174a7c;}.cls-18{stroke:#bcbec0;stroke-miterlimit:10;}.cls-20{font-size:18px;font-family:Avenir-Medium, Avenir;font-weight:500;}.cls-21{letter-spacing:-0.02em;}.cls-22{font-size:14px;}.cls-23{letter-spacing:-0.02em;}.cls-24{letter-spacing:-0.09em;}.cls-25{letter-spacing:-0.21em;}.cls-26{fill:#565656;font-family:Avenir-BookOblique, Avenir;font-style:oblique;}</style></defs><title>_charts2</title><g id="value"><text class="cls-1" transform="translate(5.38 364.59)">Sou<tspan class="cls-2" x="17.58" y="0">r</tspan><tspan x="21.29" y="0">ce:</tspan><tspan class="cls-3" x="34.81" y="0" xml:space="preserve"> The Federal Reserve Boa</tspan><tspan class="cls-4" x="148.92" y="0">r</tspan><tspan class="cls-3" x="152.06" y="0">d, 2016 Survey of Consumer Finances, October 2017.</tspan><tspan x="0" y="14">Note: </tspan><tspan class="cls-3" x="29.61" y="14">“Other” category includes other races and ethnicity and families of multiple races or </tspan><tspan class="cls-3"><tspan x="0" y="26">ethnicities; the Survey of Consumer Finances does not p</tspan><tspan class="cls-2" x="250.58" y="26">r</tspan><tspan x="253.72" y="26">esent data b</tspan><tspan class="cls-5" x="309.46" y="26">r</tspan><tspan x="312.6" y="26">eakdowns for Asian families.</tspan></tspan></text><text class="cls-6" transform="translate(26.02 61.34)">Black</text><rect class="cls-7" x="5" y="53" width="15" height="10"/><text class="cls-6" transform="translate(101.02 61.34)">Hispanic</text><rect class="cls-8" x="80" y="53" width="15" height="10"/><text class="cls-6" transform="translate(192.02 61.34)">White</text><rect class="cls-9" x="171" y="53" width="15" height="10"/><text class="cls-6" transform="translate(270.02 61.34)">O<tspan class="cls-10" x="10.01" y="0">t</tspan><tspan class="cls-11" x="14.24" y="0">her</tspan></text><rect class="cls-12" x="249" y="53" width="15" height="10"/><path class="cls-13" d="M58.78,101.57H441M58.78,138.48H441M58.78,175.39H441M58.78,212.29H441M58.78,249.2H441M58.78,286.11H441"/><line class="cls-14" x1="58.78" y1="323.02" x2="441" y2="323.02"/><path class="cls-14" d="M441,323v2.84M398.69,323v2.84m-43-2.84v2.84M313.36,323v2.84M271.05,323v2.84M228.73,323v2.84M186.42,323v2.84m-43-2.84v2.84M101.1,323v2.84M58.78,323v2.84"/><polyline class="cls-15" points="58.78 296.76 101.09 298.18 143.41 297.47 186.42 288.24 228.73 291.08 271.05 266.95 313.36 264.82 355.68 280.43 398.69 280.43 441 267.66"/><polyline class="cls-16" points="58.78 288.24 101.09 303.15 143.41 278.3 186.42 273.34 228.73 282.56 271.05 286.11 313.36 267.66 355.68 269.79 398.69 293.21 441 252.04"/><polyline class="cls-17" points="58.78 266.24 101.09 262.69 143.41 251.33 186.42 235.01 228.73 205.91 271.05 195.26 313.36 179.65 355.68 166.16 398.69 143.45 441 130.67"/><polyline class="cls-18" points="58.78 278.3 101.09 261.98 143.41 262.69 186.42 223.65 228.73 224.36 271.05 242.1 313.36 252.75 355.68 203.78 398.69 222.94 441 169"/><text class="cls-19" transform="translate(35.3 325.5)">$0</text><text class="cls-19" transform="translate(10.28 288.6)">$50,000</text><text class="cls-19" transform="translate(4.72 251.69)">$100,000</text><text class="cls-19" transform="translate(4.72 214.78)">$150,000</text><text class="cls-19" transform="translate(4.72 177.87)">$200,000</text><text class="cls-19" transform="translate(4.72 140.96)">$250,000</text><text class="cls-19" transform="translate(4.72 104.05)">$300,000</text><text class="cls-19" transform="translate(54.08 338.15)">1989</text><text class="cls-19" transform="translate(89.5 338.15)">1992</text><text class="cls-19" transform="translate(131.93 338.15)">1995</text><text class="cls-19" transform="translate(175.35 338.15)">1998</text><text class="cls-19" transform="translate(217.78 338.15)">2001</text><text class="cls-19" transform="translate(260.2 338.15)">2004</text><text class="cls-19" transform="translate(302.63 338.15)">2007</text><text class="cls-19" transform="translate(343.05 338.15)">2010</text><text class="cls-19" transform="translate(387.48 338.15)">2013</text><text class="cls-19" transform="translate(421.91 338.15)">2016</text><text class="cls-20" transform="translate(5.46 19.58)">Families Holding Reti<tspan class="cls-21" x="172.64" y="0">r</tspan><tspan x="178.97" y="0">ement Accounts</tspan></text><text class="cls-22" transform="translate(5.46 39.28)"><tspan class="cls-23">A</tspan><tspan x="9.35" y="0">verage value by race or ethnicit</tspan><tspan class="cls-24" x="205.35" y="0">y</tspan><tspan x="210.81" y="0">, 1989</tspan><tspan class="cls-25" x="249.73" y="0"> </tspan><tspan x="250.73" y="0">–</tspan><tspan class="cls-25" x="257.73" y="0"> </tspan><tspan x="258.73" y="0">2016 </tspan></text><text class="cls-26" transform="translate(5.46 86.18)">2016 dollars</text></g></svg>