<svg xmlns="http://www.w3.org/2000/svg" viewBox="0 0 450 457"><defs><style>.cls-1{font-size:18px;}.cls-1,.cls-29,.cls-9{font-family:Avenir-Medium, Avenir;font-weight:500;}.cls-2{letter-spacing:-0.02em;}.cls-3{font-size:14px;}.cls-18,.cls-19,.cls-20,.cls-21,.cls-22,.cls-3{font-family:Avenir-Book, Avenir;}.cls-4{letter-spacing:-0.09em;}.cls-15,.cls-5{fill:none;}.cls-5{stroke:#d9d9d9;stroke-linejoin:round;stroke-dasharray:1 1;}.cls-16,.cls-6{font-size:10px;}.cls-10,.cls-6{font-family:Avenir-Roman, Avenir;}.cls-10,.cls-29,.cls-7,.cls-9{font-size:12px;}.cls-7{fill:#565656;font-family:Avenir-BookOblique, Avenir;font-style:oblique;}.cls-8{letter-spacing:-0.02em;}.cls-11{fill:#008bb0;}.cls-12{fill:#174a7c;}.cls-13{fill:#f0573e;}.cls-14{fill:#fcb64b;}.cls-15{stroke:#000;stroke-miterlimit:10;stroke-width:0.75px;}.cls-16{font-family:Avenir-Heavy, Avenir;font-weight:800;}.cls-17,.cls-21{letter-spacing:-0.02em;}.cls-18,.cls-19,.cls-20,.cls-21,.cls-22{font-weight:400;}.cls-19,.cls-26{letter-spacing:-0.11em;}.cls-20,.cls-23{letter-spacing:-0.02em;}.cls-22,.cls-24{letter-spacing:-0.09em;}.cls-25{letter-spacing:0.02em;}.cls-27{fill:#f0573d;}.cls-28{fill:#17497c;}.cls-29{fill:#fff;}</style></defs><title>_charts2</title><g id="axis"><text class="cls-1" transform="translate(10.02 18.34)">Summary of Households with Child<tspan class="cls-2" x="285.41" y="0">r</tspan><tspan x="291.74" y="0">en</tspan></text><text class="cls-3" transform="translate(10.02 37.34)">By race or ethnicit<tspan class="cls-4" x="112.75" y="0">y</tspan><tspan x="118.21" y="0">, 2018</tspan></text><line class="cls-5" x1="37.86" y1="123.94" x2="364" y2="123.94"/><line class="cls-5" x1="37.86" y1="140.99" x2="364" y2="140.99"/><line class="cls-5" x1="37.86" y1="158.05" x2="364" y2="158.05"/><line class="cls-5" x1="37.86" y1="175.1" x2="364" y2="175.1"/><line class="cls-5" x1="37.86" y1="192.16" x2="364" y2="192.16"/><line class="cls-5" x1="37.86" y1="209.21" x2="364" y2="209.21"/><line class="cls-5" x1="37.86" y1="226.27" x2="364" y2="226.27"/><line class="cls-5" x1="37.86" y1="243.33" x2="364" y2="243.33"/><line class="cls-5" x1="37.86" y1="260.38" x2="364" y2="260.38"/><line class="cls-5" x1="37.86" y1="277.44" x2="364" y2="277.44"/></g><g id="value"><text class="cls-6" transform="translate(5.87 126.28)">100%</text><text class="cls-6" transform="translate(11.43 143.28)">90%</text><text class="cls-6" transform="translate(11.43 160.28)">80%</text><text class="cls-6" transform="translate(11.43 177.28)">70%</text><text class="cls-6" transform="translate(11.43 194.28)">60%</text><text class="cls-6" transform="translate(11.43 211.28)">50%</text><text class="cls-6" transform="translate(11.43 228.28)">40%</text><text class="cls-6" transform="translate(11.43 245.28)">30%</text><text class="cls-6" transform="translate(11.43 262.28)">20%</text><text class="cls-6" transform="translate(11.43 279.28)">10%</text><text class="cls-6" transform="translate(16.99 296.28)">0%</text><text class="cls-7" transform="translate(4.88 108.28)">Sha<tspan class="cls-8" x="19.57" y="0">r</tspan><tspan x="23.34" y="0">e of all households with child</tspan><tspan class="cls-8" x="178.45" y="0">r</tspan><tspan x="182.22" y="0">en</tspan></text><text class="cls-9" transform="translate(61.92 307.28)">All income<tspan x="13.24" y="14.4">levels</tspan></text><text class="cls-9" transform="translate(158.67 307.28)">Household income <tspan x="11.45" y="14.4">under $55,000</tspan></text><text class="cls-9" transform="translate(279.67 307.28)">Household income <tspan x="11.45" y="14.4">under $30,000</tspan></text><text class="cls-10" transform="translate(32.02 82.34)">Hispanic households</text><text class="cls-10" transform="translate(32.02 63.34)">White households</text><text class="cls-10" transform="translate(186.02 63.34)">Black households</text><rect class="cls-11" x="167" y="55" width="15" height="10"/><text class="cls-10" transform="translate(186.02 82.34)">Asian households</text><rect class="cls-12" x="167" y="74" width="15" height="10"/><rect class="cls-13" x="13" y="74" width="15" height="10"/><rect class="cls-14" x="13" y="55" width="15" height="10"/><line class="cls-15" x1="58.86" y1="293.44" x2="363.86" y2="293.44"/><text class="cls-16" transform="translate(6.02 348.34)">Sou<tspan class="cls-17" x="17.58" y="0">r</tspan><tspan x="21.29" y="0">ce:</tspan><tspan class="cls-18" x="34.81" y="0"> </tspan><tspan class="cls-19" x="37.59" y="0">T</tspan><tspan class="cls-18" x="42.22" y="0">able HINC-04, P</tspan><tspan class="cls-20" x="114.69" y="0">r</tspan><tspan class="cls-18" x="117.83" y="0">esence of Child</tspan><tspan class="cls-21" x="187.11" y="0">r</tspan><tspan class="cls-18" x="190.25" y="0">en under 18 </tspan><tspan class="cls-22" x="246.94" y="0">Y</tspan><tspan class="cls-18" x="251.76" y="0">ears Old-Households, by </tspan><tspan class="cls-19" x="365.1" y="0">T</tspan><tspan class="cls-18" x="369.73" y="0">otal Money </tspan><tspan class="cls-18"><tspan x="0" y="12">Income in 2018,US Census Bu</tspan><tspan class="cls-17" x="133.65" y="12">r</tspan><tspan x="136.79" y="12">eau, Cur</tspan><tspan class="cls-23" x="174.58" y="12">r</tspan><tspan x="177.72" y="12">ent Population Surve</tspan><tspan class="cls-24" x="270.68" y="12">y</tspan><tspan x="274.58" y="12">, 2019 Annual Social and Economic </tspan><tspan x="0" y="24">Supplement, September 2019.</tspan></tspan><tspan x="0" y="38">Notes:</tspan><tspan class="cls-18" x="31.09" y="38" xml:space="preserve"> Acco</tspan><tspan class="cls-21" x="56.3" y="38">r</tspan><tspan class="cls-18" x="59.44" y="38">ding to the US Department of Health and Human Services, the 2019 federal poverty </tspan><tspan class="cls-18"><tspan x="0" y="50">guideline for a five-person household in any of the 48 contiguous states and the District of </tspan><tspan x="0" y="62">Columbia is $30,170. Acco</tspan><tspan class="cls-17" x="119.5" y="62">r</tspan><tspan x="122.64" y="62">ding to the Inte</tspan><tspan class="cls-25" x="191.93" y="62">r</tspan><tspan x="195.43" y="62">nal Revenue Service, the Ea</tspan><tspan class="cls-25" x="318.62" y="62">r</tspan><tspan x="322.12" y="62">ned Income </tspan><tspan class="cls-26" x="377.94" y="62">T</tspan><tspan x="382.57" y="62">ax C</tspan><tspan class="cls-17" x="402.4" y="62">r</tspan><tspan x="405.54" y="62">edit </tspan><tspan x="0" y="74">th</tspan><tspan class="cls-17" x="8.88" y="74">r</tspan><tspan x="12.02" y="74">eshold for maximum Adjusted G</tspan><tspan class="cls-23" x="156.66" y="74">r</tspan><tspan x="159.8" y="74">oss Income for joint filers with th</tspan><tspan class="cls-17" x="304.05" y="74">r</tspan><tspan x="307.19" y="74">ee qualifying child</tspan><tspan class="cls-23" x="388.67" y="74">r</tspan><tspan x="391.81" y="74">en is </tspan><tspan x="0" y="86">$55,952 for 2019.</tspan><tspan x="0" y="100">Numbers a</tspan><tspan class="cls-17" x="49.08" y="100">r</tspan><tspan x="52.22" y="100">e </tspan><tspan class="cls-23" x="60.56" y="100">r</tspan><tspan x="63.7" y="100">ounded.</tspan></tspan></text><rect class="cls-27" x="65.77" y="123.57" width="48.77" height="96.98"/><rect class="cls-27" x="304.5" y="124" width="48.77" height="60.84"/><rect class="cls-27" x="185.23" y="123.83" width="48.77" height="68.47"/><rect class="cls-14" x="65.77" y="220.56" width="48.77" height="36.84"/><rect class="cls-14" x="304.5" y="184.84" width="48.77" height="53.57"/><rect class="cls-14" x="185.23" y="192.3" width="48.77" height="54.38"/><rect class="cls-11" x="65.77" y="257.4" width="48.77" height="24.26"/><rect class="cls-11" x="304.5" y="238.41" width="48.77" height="47.83"/><rect class="cls-11" x="185.23" y="246.69" width="48.77" height="38.68"/><rect class="cls-28" x="65.77" y="281.66" width="48.77" height="12.15"/><rect class="cls-28" x="304.5" y="286.24" width="48.77" height="7.57"/><rect class="cls-28" x="185.23" y="285.36" width="48.77" height="8.45"/></g><g id="numbers"><text class="cls-29" transform="translate(78.7 177.4)">56%</text><text class="cls-9" transform="translate(78.7 243.4)">21%</text><text class="cls-29" transform="translate(78.7 273.4)">14%</text><text class="cls-29" transform="translate(197.7 163.4)">40%</text><text class="cls-9" transform="translate(197.7 223.4)">31%</text><text class="cls-29" transform="translate(197.7 269.4)">21%</text><text class="cls-29" transform="translate(316.7 159.4)">35%</text><text class="cls-9" transform="translate(316.7 212.4)">31%</text><text class="cls-29" transform="translate(316.7 266.4)">28%</text></g></svg>