<svg xmlns="http://www.w3.org/2000/svg" viewBox="0 0 450 413"><defs><style>.cls-1,.cls-2{fill:none;}.cls-1{stroke:#d9d9d9;stroke-linejoin:round;stroke-dasharray:1 1;}.cls-2{stroke:#000;stroke-miterlimit:10;stroke-width:0.75px;}.cls-3{font-size:18px;}.cls-10,.cls-3,.cls-30{font-family:"Avenir LT W01_65 Medium1475532", Avenir;font-weight:500;}.cls-4{font-size:14px;}.cls-13,.cls-14,.cls-15,.cls-16,.cls-4{font-family:"Avenir LT W01_45 Book O1475514", Avenir;}.cls-5{letter-spacing:-0.09em;}.cls-11,.cls-6{font-size:10px;}.cls-26,.cls-6{font-family:"Avenir LT W01_55 Roman1475520", Avenir;}.cls-10,.cls-26,.cls-30,.cls-7{font-size:12px;}.cls-7{fill:#565656;font-family:"Avenir LT W01_55 Obliqu1475526", Avenir;font-style:oblique;}.cls-8{letter-spacing:-0.02em;}.cls-9{letter-spacing:0em;}.cls-11{font-family:"Avenir LT W01_85 Heavy1475544", Avenir;font-weight:800;}.cls-12,.cls-14{letter-spacing:-0.02em;}.cls-13,.cls-14,.cls-15,.cls-16{font-weight:400;}.cls-15,.cls-19{letter-spacing:-0.02em;}.cls-16,.cls-20{letter-spacing:-0.09em;}.cls-17{letter-spacing:-0.11em;}.cls-18{letter-spacing:-0.11em;}.cls-21{fill:#caccce;}.cls-22{fill:#008bb0;}.cls-23{fill:#fcb64b;}.cls-24{fill:#f0573e;}.cls-25{fill:#174a7c;}.cls-27{letter-spacing:0em;}.cls-28{letter-spacing:0em;}.cls-29{letter-spacing:-0.02em;}.cls-30{fill:#fff;}</style></defs><title>_charts2</title><g id="axis"><line class="cls-1" x1="36.86" y1="140.94" x2="341.86" y2="140.94"/><line class="cls-1" x1="36.86" y1="157.99" x2="341.86" y2="157.99"/><line class="cls-1" x1="36.86" y1="175.05" x2="341.86" y2="175.05"/><line class="cls-1" x1="36.86" y1="192.1" x2="341.86" y2="192.1"/><line class="cls-1" x1="36.86" y1="209.16" x2="341.86" y2="209.16"/><line class="cls-1" x1="36.86" y1="226.21" x2="341.86" y2="226.21"/><line class="cls-1" x1="36.86" y1="243.27" x2="341.86" y2="243.27"/><line class="cls-1" x1="36.86" y1="260.33" x2="341.86" y2="260.33"/><line class="cls-1" x1="36.86" y1="277.38" x2="341.86" y2="277.38"/><line class="cls-1" x1="36.86" y1="294.44" x2="341.86" y2="294.44"/><line class="cls-2" x1="36.86" y1="310.44" x2="341.86" y2="310.44"/></g><g id="value"><text class="cls-3" transform="translate(3.88 19.58)">Composition and Marital Status of Households</text><text class="cls-4" transform="translate(3.88 39.28)">By race or ethnicit<tspan class="cls-5" x="112.75" y="0">y</tspan><tspan x="118.21" y="0">, 2018</tspan></text><text class="cls-6" transform="translate(4.87 143.28)">100%</text><text class="cls-6" transform="translate(10.43 160.28)">90%</text><text class="cls-6" transform="translate(10.43 177.28)">80%</text><text class="cls-6" transform="translate(10.43 194.28)">70%</text><text class="cls-6" transform="translate(10.43 211.28)">60%</text><text class="cls-6" transform="translate(10.43 228.28)">50%</text><text class="cls-6" transform="translate(10.43 245.28)">40%</text><text class="cls-6" transform="translate(10.43 262.28)">30%</text><text class="cls-6" transform="translate(10.43 279.28)">20%</text><text class="cls-6" transform="translate(10.43 296.28)">10%</text><text class="cls-6" transform="translate(15.99 313.28)">0%</text><text class="cls-7" transform="translate(3.88 125.28)">Pe<tspan class="cls-8" x="13.56" y="0">r</tspan><tspan class="cls-9" x="17.33" y="0">centage of total</tspan></text><text class="cls-10" transform="translate(282.11 324.28)">Asian</text><text class="cls-10" transform="translate(66.54 324.28)">Black</text><text class="cls-10" transform="translate(129.89 324.28)">Hispanic</text><text class="cls-11" transform="translate(3.88 347.28)">Sou<tspan class="cls-12" x="17.58" y="0">r</tspan><tspan x="21.29" y="0">ce:</tspan><tspan class="cls-13" x="34.81" y="0" xml:space="preserve"> U.S. Census Bu</tspan><tspan class="cls-14" x="105.23" y="0">r</tspan><tspan class="cls-13" x="108.37" y="0">eau, Cur</tspan><tspan class="cls-15" x="146.16" y="0">r</tspan><tspan class="cls-13" x="149.3" y="0">ent Population Surve</tspan><tspan class="cls-16" x="242.26" y="0">y</tspan><tspan class="cls-13" x="246.16" y="0">, 2018 Annual Social and Economic </tspan><tspan class="cls-13"><tspan x="0" y="12">Supplement, November 2018; </tspan><tspan class="cls-17" x="138" y="12">T</tspan><tspan x="142.63" y="12">able H3, “Households by Race and Hispanic Origin of Household </tspan><tspan x="0" y="24">Refe</tspan><tspan class="cls-12" x="20.01" y="24">r</tspan><tspan x="23.15" y="24">ence Person and Detailed </tspan><tspan class="cls-18" x="140.95" y="24">T</tspan><tspan x="145.58" y="24">ype: 2018,” f</tspan><tspan class="cls-12" x="203.58" y="24">r</tspan><tspan x="206.72" y="24">om U.S. Census Bu</tspan><tspan class="cls-12" x="291.58" y="24">r</tspan><tspan x="294.72" y="24">eau, Cur</tspan><tspan class="cls-19" x="332.51" y="24">r</tspan><tspan x="335.65" y="24">ent Population Surve</tspan><tspan class="cls-20" x="428.61" y="24">y</tspan><tspan x="432.51" y="24">, </tspan><tspan x="0" y="36">2018 Annual Social and Economic Supplement, November 2018.</tspan></tspan><tspan x="0" y="50">Note:</tspan><tspan class="cls-13" x="26.65" y="50" xml:space="preserve"> “Other” includes householders whe</tspan><tspan class="cls-14" x="189.27" y="50">r</tspan><tspan class="cls-13" x="192.41" y="50">e an other </tspan><tspan class="cls-15" x="240.75" y="50">r</tspan><tspan class="cls-13" x="243.88" y="50">elative is not the householder&apos;s spouse or </tspan><tspan class="cls-13"><tspan x="0" y="62">the householder&apos;s biological, step, or adopted child, and other householders with no </tspan><tspan class="cls-12" x="381.1" y="62">r</tspan><tspan x="384.24" y="62">elatives.</tspan></tspan></text><text class="cls-10" transform="translate(210.78 324.28)">White</text><rect class="cls-21" x="279" y="141" width="34.96" height="19.04"/><rect class="cls-22" x="279" y="160.04" width="34.96" height="33.32"/><rect class="cls-23" x="279" y="193.37" width="34.96" height="10.31"/><rect class="cls-24" x="279" y="203.68" width="34.96" height="7.32"/><rect class="cls-25" x="279" y="211" width="34.96" height="99"/><rect class="cls-21" x="63.23" y="141" width="34.96" height="14.28"/><rect class="cls-22" x="63.23" y="155.28" width="34.96" height="60.3"/><rect class="cls-23" x="63.23" y="215.58" width="34.96" height="37.29"/><rect class="cls-24" x="63.23" y="252.87" width="34.96" height="10.31"/><rect class="cls-25" x="63.23" y="263.19" width="34.96" height="46.81"/><rect class="cls-21" x="135.64" y="141" width="34.96" height="17.54"/><rect class="cls-22" x="135.64" y="158.54" width="34.96" height="29.5"/><rect class="cls-23" x="135.64" y="188.03" width="34.96" height="27.1"/><rect class="cls-24" x="135.64" y="215.14" width="34.96" height="13.55"/><rect class="cls-25" x="135.64" y="228.69" width="34.96" height="81.31"/><rect class="cls-21" x="209.04" y="141" width="34.96" height="8.77"/><rect class="cls-22" x="209.04" y="149.77" width="34.96" height="48.63"/><rect class="cls-23" x="209.04" y="198.4" width="34.96" height="13.55"/><rect class="cls-24" x="209.04" y="211.95" width="34.96" height="11.96"/><rect class="cls-25" x="209.04" y="223.91" width="34.96" height="86.09"/><text class="cls-26" transform="translate(31.02 63.34)">Married couple</text><text class="cls-26" transform="translate(31.02 80.34)">Couple <tspan class="cls-27" x="42.47" y="0">l</tspan><tspan x="45.36" y="0">iving toge</tspan><tspan class="cls-28" x="99.6" y="0">t</tspan><tspan x="103.83" y="0">her</tspan></text><text class="cls-26" transform="translate(31.02 97.34)">Single pa<tspan class="cls-29" x="50" y="0">r</tspan><tspan x="54.01" y="0">ent</tspan></text><text class="cls-26" transform="translate(216.02 80.34)">O<tspan class="cls-28" x="10.01" y="0">t</tspan><tspan class="cls-9" x="14.24" y="0">her</tspan></text><text class="cls-26" transform="translate(216.02 63.34)">Person <tspan class="cls-27" x="40.26" y="0">l</tspan><tspan x="43.15" y="0">iving alone</tspan></text><rect class="cls-25" x="12" y="55" width="15" height="10"/><rect class="cls-24" x="12" y="72" width="15" height="10"/><rect class="cls-22" x="197" y="55" width="15" height="10"/><rect class="cls-21" x="197" y="72" width="15" height="10"/><rect class="cls-23" x="12" y="89" width="15" height="10"/></g><g id="numbers"><text class="cls-30" transform="translate(285.29 263.46)">59%</text><text class="cls-30" transform="translate(69.29 292.46)">28%</text><text class="cls-30" transform="translate(141.29 273.46)">48%</text><text class="cls-30" transform="translate(215.29 269.46)">51%</text></g></svg>