<svg xmlns="http://www.w3.org/2000/svg" viewBox="0 0 450 330"><defs><style>.cls-1{font-size:18px;}.cls-1,.cls-17,.cls-21{font-family:Avenir-Medium, Avenir;font-weight:500;}.cls-2{letter-spacing:-0.02em;}.cls-3{font-size:14px;}.cls-15,.cls-16,.cls-3{font-family:Avenir-Book, Avenir;}.cls-4{letter-spacing:-0.09em;}.cls-17,.cls-21,.cls-5{font-size:12px;}.cls-18,.cls-5{font-family:Avenir-Roman, Avenir;}.cls-6{letter-spacing:0em;}.cls-7{letter-spacing:0em;}.cls-8{letter-spacing:-0.02em;}.cls-9{letter-spacing:0em;}.cls-10{letter-spacing:-0.02em;}.cls-11,.cls-12{fill:none;}.cls-11{stroke:#d9d9d9;stroke-linejoin:round;stroke-dasharray:1 1;}.cls-12{stroke:#000;stroke-miterlimit:10;stroke-width:0.75px;}.cls-13,.cls-18{font-size:10px;}.cls-13{font-family:Avenir-Heavy, Avenir;font-weight:800;}.cls-14,.cls-16{letter-spacing:-0.02em;}.cls-15,.cls-16{font-weight:400;}.cls-19{fill:#008bb0;}.cls-20{fill:#17497c;}.cls-21{fill:#fff;}</style></defs><title>_charts2</title><g id="value"><text class="cls-1" transform="translate(4.38 19.58)">Families Holding Real P<tspan class="cls-2" x="191" y="0">r</tspan><tspan x="197.33" y="0">operty Beyond Primary Home</tspan></text><text class="cls-3" transform="translate(4.38 39.28)">Median value by race or ethnicit<tspan class="cls-4" x="200.42" y="0">y</tspan><tspan x="205.88" y="0">, 2016</tspan></text><text class="cls-5" transform="translate(27.38 63.58)">O<tspan class="cls-6" x="10.01" y="0">t</tspan><tspan class="cls-7" x="14.24" y="0">her </tspan><tspan class="cls-8" x="35.15" y="0">r</tspan><tspan x="39.16" y="0">esiden</tspan><tspan class="cls-9" x="74.5" y="0">t</tspan><tspan x="78.73" y="0">ial p</tspan><tspan class="cls-10" x="101.39" y="0">r</tspan><tspan x="105.39" y="0">operty</tspan></text><text class="cls-5" transform="translate(202.38 63.58)">Equity in non<tspan class="cls-8" x="70.7" y="0">r</tspan><tspan x="74.71" y="0">esiden</tspan><tspan class="cls-9" x="110.05" y="0">t</tspan><tspan x="114.29" y="0">ial p</tspan><tspan class="cls-10" x="136.94" y="0">r</tspan><tspan x="140.95" y="0">operty</tspan></text><line class="cls-11" x1="130.41" y1="77.24" x2="130.41" y2="284.24"/><line class="cls-11" x1="204.81" y1="77.24" x2="204.81" y2="284.24"/><line class="cls-11" x1="279.2" y1="77.24" x2="279.2" y2="284.24"/><line class="cls-11" x1="353.6" y1="76.76" x2="353.6" y2="283.76"/><line class="cls-11" x1="428" y1="76.28" x2="428" y2="283.28"/><line class="cls-12" x1="56" y1="77.24" x2="56" y2="284.24"/><text class="cls-13" transform="translate(4.38 325.58)">Sou<tspan class="cls-14" x="17.58" y="0">r</tspan><tspan x="21.29" y="0">ce:</tspan><tspan class="cls-15" x="34.81" y="0" xml:space="preserve"> The Federal Reserve Boa</tspan><tspan class="cls-16" x="148.92" y="0">r</tspan><tspan class="cls-15" x="152.06" y="0">d, 2016 Survey of Consumer Finances, October 2017.</tspan></text><text class="cls-17" transform="translate(18.17 208.58)">White</text><text class="cls-17" transform="translate(18.17 259.58)">Other</text><text class="cls-17" transform="translate(4.39 157.58)">Hispanic</text><text class="cls-17" transform="translate(21.7 106.58)">Black</text><text class="cls-18" transform="translate(53.6 300.58)">0</text><text class="cls-18" transform="translate(112.31 300.58)">$40,000</text><text class="cls-18" transform="translate(188.31 300.58)">$80,000</text><text class="cls-18" transform="translate(258.53 300.58)">$120,000</text><text class="cls-18" transform="translate(332.53 300.58)">$140,000</text><text class="cls-18" transform="translate(406.53 300.58)">$180,000</text><rect class="cls-19" x="6.36" y="55.24" width="15" height="10"/><rect class="cls-19" x="56.33" y="84.24" width="92.53" height="20"/><rect class="cls-20" x="181.36" y="55.24" width="15" height="10"/><rect class="cls-20" x="56.33" y="104.24" width="22.02" height="20"/><rect class="cls-19" x="56.33" y="135.24" width="185.25" height="20"/><rect class="cls-20" x="56.33" y="155.24" width="92.53" height="20"/><rect class="cls-19" x="56.33" y="186.24" width="334" height="20"/><rect class="cls-20" x="56.33" y="206.24" width="150.48" height="20"/><rect class="cls-19" x="56.33" y="237.24" width="264.46" height="20"/><rect class="cls-20" x="56.33" y="257.24" width="92.53" height="20"/><text class="cls-21" transform="translate(96.38 98.58)">$50,000</text><text class="cls-21" transform="translate(182.38 149.58)">$100,000</text><text class="cls-21" transform="translate(330.38 200.58)">$180,000</text><text class="cls-21" transform="translate(153.38 220.58)">$81,000</text><text class="cls-21" transform="translate(259.38 251.58)">$142,500</text><text class="cls-21" transform="translate(95.38 271.58)">$50,000</text><text class="cls-17" transform="translate(83.38 119.58)">$12,000</text><text class="cls-21" transform="translate(96.38 170.58)">$50,000</text></g></svg>