<svg xmlns="http://www.w3.org/2000/svg" viewBox="0 0 450 430"><defs><style>.cls-1,.cls-28{fill:none;}.cls-1{stroke:#d9d9d9;stroke-linejoin:round;stroke-dasharray:1 1;}.cls-2,.cls-3{font-size:10px;}.cls-2,.cls-21{font-family:Avenir-Roman, Avenir;}.cls-27,.cls-3{font-family:Avenir-Heavy, Avenir;font-weight:800;}.cls-10,.cls-4{letter-spacing:-0.02em;}.cls-10,.cls-15,.cls-5,.cls-6,.cls-7{font-family:Avenir-Book, Avenir;}.cls-10,.cls-5,.cls-6,.cls-7{font-weight:400;}.cls-13,.cls-6{letter-spacing:-0.11em;}.cls-7,.cls-8{letter-spacing:-0.02em;}.cls-9{letter-spacing:-0.09em;}.cls-11{letter-spacing:0.02em;}.cls-12{letter-spacing:0em;}.cls-14{font-size:18px;}.cls-14,.cls-20{font-family:Avenir-Medium, Avenir;font-weight:500;}.cls-15{font-size:14px;}.cls-16{letter-spacing:-0.09em;}.cls-17,.cls-20,.cls-21,.cls-27{font-size:12px;}.cls-17{fill:#565656;font-family:Avenir-BookOblique, Avenir;font-style:oblique;}.cls-18{letter-spacing:-0.02em;}.cls-19{letter-spacing:0em;}.cls-22{letter-spacing:-0.02em;}.cls-23{letter-spacing:0em;}.cls-24{letter-spacing:0em;}.cls-25{fill:#174a7c;}.cls-26{fill:#008bb0;}.cls-27{fill:#fff;}.cls-28{stroke:#000;stroke-miterlimit:10;stroke-width:0.75px;}</style></defs><title>_charts2</title><g id="axis"><line class="cls-1" x1="31.76" y1="113.57" x2="388.76" y2="113.57"/><line class="cls-1" x1="31.76" y1="137.63" x2="388.76" y2="137.63"/><line class="cls-1" x1="31.76" y1="162.68" x2="388.76" y2="162.68"/><line class="cls-1" x1="31.76" y1="187.74" x2="388.76" y2="187.74"/><line class="cls-1" x1="31.76" y1="211.79" x2="388.76" y2="211.79"/><line class="cls-1" x1="31.76" y1="236.85" x2="388.76" y2="236.85"/><line class="cls-1" x1="31.76" y1="260.91" x2="388.76" y2="260.91"/><line class="cls-1" x1="31.76" y1="285.96" x2="388.76" y2="285.96"/><text class="cls-2" transform="translate(5.33 115.8)">80%</text><text class="cls-2" transform="translate(5.33 139.8)">70%</text><text class="cls-2" transform="translate(5.33 164.8)">60%</text><text class="cls-2" transform="translate(5.33 189.8)">50%</text><text class="cls-2" transform="translate(5.33 213.8)">40%</text><text class="cls-2" transform="translate(5.33 238.8)">30%</text><text class="cls-2" transform="translate(5.33 262.8)">20%</text><text class="cls-2" transform="translate(5.33 287.8)">10%</text><text class="cls-2" transform="translate(10.89 312.8)">0%</text></g><g id="value"><text class="cls-3" transform="translate(7.96 350.05)">Sou<tspan class="cls-4" x="17.58" y="0">r</tspan><tspan x="21.29" y="0">ce:</tspan><tspan class="cls-5" x="34.81" y="0" xml:space="preserve">  HINC-01, Selected Characteristics of Households, by </tspan><tspan class="cls-6" x="278.01" y="0">T</tspan><tspan class="cls-5" x="282.64" y="0">otal Money Income in 2018, f</tspan><tspan class="cls-7" x="413.12" y="0">r</tspan><tspan class="cls-5" x="416.26" y="0">om </tspan><tspan class="cls-5"><tspan x="0" y="12">US Census Bu</tspan><tspan class="cls-4" x="62.08" y="12">r</tspan><tspan x="65.22" y="12">eau, Cur</tspan><tspan class="cls-8" x="103.01" y="12">r</tspan><tspan x="106.15" y="12">ent Population Surve</tspan><tspan class="cls-9" x="199.11" y="12">y</tspan><tspan x="203.01" y="12">, 2019 Annual Social and Economic Supplement, </tspan><tspan x="0" y="24">September 2019.</tspan></tspan><tspan x="0" y="38">Notes:</tspan><tspan class="cls-5" x="31.09" y="38" xml:space="preserve"> Money income consists of 23 income components, including wages or salaries, inte</tspan><tspan class="cls-10" x="404.67" y="38">r</tspan><tspan class="cls-5" x="407.81" y="38">est </tspan><tspan class="cls-5"><tspan x="0" y="50">and dividends, </tspan><tspan class="cls-4" x="68.53" y="50">r</tspan><tspan x="71.67" y="50">ent and </tspan><tspan class="cls-8" x="108.53" y="50">r</tspan><tspan x="111.67" y="50">oyalties, Social Securit</tspan><tspan class="cls-9" x="210.72" y="50">y</tspan><tspan x="214.62" y="50">, gove</tspan><tspan class="cls-11" x="242.6" y="50">r</tspan><tspan class="cls-12" x="246.1" y="50">nment pensions and annuities, </tspan><tspan x="0" y="62">unemployment compensation, </tspan><tspan class="cls-13" x="138.92" y="62">T</tspan><tspan x="143.55" y="62">emporary Assistance for Needy Families public assistance, </tspan><tspan x="0" y="74">alimon</tspan><tspan class="cls-9" x="30" y="74">y</tspan><tspan x="33.9" y="74">, and veterans’ pensions.</tspan></tspan></text><text class="cls-14" transform="translate(3.78 17.8)">Summary of Household Income</text><text class="cls-15" transform="translate(3.78 36.8)">By race or ethnicit<tspan class="cls-16" x="112.75" y="0">y</tspan><tspan x="118.21" y="0">, 2018</tspan></text><text class="cls-17" transform="translate(3.78 97.8)">Pe<tspan class="cls-18" x="13.56" y="0">r</tspan><tspan class="cls-19" x="17.33" y="0">centage of total</tspan></text><text class="cls-20" transform="translate(66 323.8)">Asian</text><text class="cls-20" transform="translate(140.44 323.8)">Black</text><text class="cls-20" transform="translate(236.78 323.8)">Hispanic</text><text class="cls-20" transform="translate(334.68 323.8)">White</text><text class="cls-21" transform="translate(186.02 71.34)">Sha<tspan class="cls-22" x="19.57" y="0">r</tspan><tspan x="23.58" y="0">e of households wi</tspan><tspan class="cls-23" x="124.32" y="0">t</tspan><tspan class="cls-19" x="128.55" y="0">h income over $150,000</tspan></text><text class="cls-21" transform="translate(23.92 70.87)">Sha<tspan class="cls-22" x="19.57" y="0">r</tspan><tspan x="23.58" y="0">e of a</tspan><tspan class="cls-24" x="54.06" y="0">l</tspan><tspan x="56.95" y="0">l households</tspan></text><rect class="cls-25" x="4.9" y="62.52" width="15" height="10"/><rect class="cls-26" x="167" y="63" width="15" height="10"/><rect class="cls-25" x="39.9" y="296" width="34.77" height="13.97"/><rect class="cls-26" x="74.9" y="287" width="34.77" height="22.97"/><rect class="cls-25" x="129.9" y="277" width="34.77" height="32.97"/><rect class="cls-26" x="164.9" y="294" width="34.77" height="15.97"/><rect class="cls-25" x="218.9" y="277" width="34.77" height="32.97"/><rect class="cls-26" x="253.9" y="292" width="34.77" height="17.97"/><rect class="cls-25" x="308.9" y="149" width="34.77" height="160.97"/><rect class="cls-26" x="343.9" y="125" width="34.77" height="184.97"/><text class="cls-27" transform="translate(63.39 211.93)">5%</text><text class="cls-20" transform="translate(47.53 292.48)">5%</text><text class="cls-20" transform="translate(173.53 290.48)">6%</text><text class="cls-20" transform="translate(83.53 283.76)">9%</text><text class="cls-20" transform="translate(134.53 273.48)">13%</text><text class="cls-20" transform="translate(224.53 273.48)">14%</text><line class="cls-28" x1="31.76" y1="309.96" x2="388.76" y2="309.96"/><text class="cls-20" transform="translate(314.53 145.48)">66%</text><text class="cls-20" transform="translate(261.53 288.48)">8%</text><text class="cls-20" transform="translate(349.53 121.48)">76%</text></g></svg>